<?xml version="1.0" encoding="utf-8"?>
<!-- Generator: Adobe Illustrator 23.1.0, SVG Export Plug-In . SVG Version: 6.00 Build 0)  -->
<!DOCTYPE svg PUBLIC "-//W3C//DTD SVG 1.1//EN" "http://www.w3.org/Graphics/SVG/1.1/DTD/svg11.dtd" [
	<!ENTITY ns_extend "http://ns.adobe.com/Extensibility/1.0/">
	<!ENTITY ns_ai "http://ns.adobe.com/AdobeIllustrator/10.0/">
	<!ENTITY ns_graphs "http://ns.adobe.com/Graphs/1.0/">
	<!ENTITY ns_vars "http://ns.adobe.com/Variables/1.0/">
	<!ENTITY ns_imrep "http://ns.adobe.com/ImageReplacement/1.0/">
	<!ENTITY ns_sfw "http://ns.adobe.com/SaveForWeb/1.0/">
	<!ENTITY ns_custom "http://ns.adobe.com/GenericCustomNamespace/1.0/">
	<!ENTITY ns_adobe_xpath "http://ns.adobe.com/XPath/1.0/">
]>
<svg version="1.1" id="Layer_1" xmlns:x="&ns_extend;" xmlns:i="&ns_ai;" xmlns:graph="&ns_graphs;"
	 xmlns="http://www.w3.org/2000/svg" xmlns:xlink="http://www.w3.org/1999/xlink" x="0px" y="0px" viewBox="0 0 1280 1024"
	 style="enable-background:new 0 0 1280 1024;" xml:space="preserve">
<style type="text/css">
	.st0{fill:#4DB848;}
	.st1{fill:#F1F1F1;}
	.st2{fill:#FED44F;}
	.st3{fill:#98C9EA;}
	.st4{fill:#F5DBCC;}
	.st5{fill:#242222;}
</style>
<metadata>
	<sfw  xmlns="&ns_sfw;">
		<slices></slices>
		<sliceSourceBounds  bottomLeftOrigin="true" height="1024" width="1045.1" x="118.4" y="-1024"></sliceSourceBounds>
	</sfw>
</metadata>
<g>
	<path class="st0" d="M640.5,1024c-94.2-1.5-177-32.5-247.7-95.2c-5.7-5-7.5-9.6-5.7-17.4C416,792.2,518.3,710.8,640.4,710.7
		c122.2-0.1,224.6,80.8,253.7,200.1c2,8.2,0.3,13-5.8,18.4C817.5,991.7,734.7,1022.7,640.5,1024z"/>
	<path class="st1" d="M644,135.1c69.1-0.5,130,47.9,145.1,115.3c15,67.1-18.7,136.5-80.5,166.1c-5.3,2.5-9.7,3.4-15.7,0.8
		c-32.9-13.9-66.4-14.5-99.7-1.8c-6.8,2.6-11.9,1.5-17.8-1.7c-60-32.1-90.6-100.6-74.4-167C516.8,181.8,575.9,135.6,644,135.1z"/>
	<path class="st2" d="M732,441.5c2.2-4,6.5-5.1,9.9-7.4c62.9-41.1,94.7-117.7,78.3-188.9c-17.3-75.2-77.6-130.7-152.4-140.4
		c-82-10.6-161.7,36.9-191.2,114.1c-29.6,77.5-2.2,165.3,66.5,212.2c7.3,5,11.9,8,2.1,15.2c-7,5.2-11,15.4-23,9.6
		c-4-1.9-8.4,2.1-12.1,4.8c-14.6,10.6-29.4,20.9-43.8,31.8c-5,3.8-8,3.5-12-1.1c-7.2-8.1-19.7-14.9-21.3-23.8
		c-1.6-9,10.7-17.7,16.8-26.6c5.7-8.4,11.7-16.6,17.8-24.7c5.4-7.2,5.8-14.3,1-21.9c-12.7-20.2-22-41.8-27-65.1
		c-2-9-7.2-14.2-16.8-15.5c-17.8-2.5-35.5-6.2-53.4-8.4c-6.9-0.9-8.9-3.5-8.5-10c0.4-8.2,0.7-16.6-0.1-24.8c-0.6-7.1,2.6-9,8.7-9.9
		c16.3-2.3,32.6-5.5,49-7.5c12.5-1.5,19.4-7,22-19.9c4.2-20.7,12.3-40.3,23.9-57.9c7.1-10.8,6.3-19.6-1.5-29.6
		c-10.7-13.6-20.1-28.1-30.6-41.8c-3.2-4.3-3-6.7,0.8-10.2c8.3-7.6,15.3-20.1,24.6-22.1c9-2,17.7,10.7,26.6,16.7
		c8.4,5.7,16.6,11.7,24.7,17.8c7.1,5.4,14.2,6,21.8,1c20.4-13.2,42.6-22.1,66.2-27.5c8.9-2,13.2-7.5,14.5-16.3
		c2.7-17.8,6.3-35.5,8.5-53.4c0.9-7.6,4-9.4,10.8-8.9C643.5,1.9,656.7-3,663.7,3c7,6,4.8,19.6,6.6,29.9c1.6,9.6,3.2,19.3,4.6,28.9
		c1.4,10,6,16.1,16.6,18.4c22.5,4.9,43.7,13.6,63.1,26.2c8.9,5.8,16.4,5,24.7-1.2c14.4-10.9,29.3-21,43.7-31.8
		c4.5-3.4,7.5-3.2,11.3,1c7.3,8.1,19.5,14.7,21.5,23.7c2,9.3-10.4,17.7-16.3,26.6c-5.6,8.4-11.6,16.6-17.8,24.7
		c-6.2,8-5.7,15.4-0.4,23.8c12.3,19.1,21.1,39.8,25.8,62c2.4,11.4,9.1,16.3,20,17.8c16.7,2.3,33.4,5.2,50.1,7.7
		c6.4,0.9,10.2,2.9,9.4,10.6c-1.1,10.4,3.8,23-1.9,30.8c-5.5,7.5-18.8,4.7-28.6,6.8c-10.6,2.3-21.4,3.8-32.2,5.3
		c-8.4,1.1-13.7,5.3-15.7,13.7c-5.5,24-14.6,46.5-27.9,67.2c-5,7.8-3.7,14.7,1.5,21.8c10.9,14.8,21.4,29.9,32.5,44.7
		c3.3,4.4,3.7,7.3-0.7,11.3c-8.4,7.5-15.5,20.7-24.5,22c-7.9,1.1-17.7-10.7-26.6-16.9c-8.6-6.1-17.1-12.3-25.6-18.4
		c-6.1-4.4-12.8-5.3-18.9-1.2c-5.8,3.9-9,2.6-12.9-2.6C741.2,450.4,736.4,446.1,732,441.5z"/>
	<path class="st3" d="M905.5,953.5c29.8-14,23.4-35.4,17.5-57.1c-14.2-52.7-41-97.9-80.8-136.9c22.4-17.5,47.1-29.1,74.2-35.5
		c110.4-26.2,217.8,38.2,246.3,147.1c2.2,8.3,0.4,13-5.8,18.2c-70.9,59.7-152,81.8-243.4,67.2C912.1,956.2,910.8,955.5,905.5,953.5z
		"/>
	<path class="st3" d="M374.1,955c-23.6,4.9-45.5,6.9-67.6,5.9c-67.5-3-127.2-26.1-179.2-69.3c-8.3-6.9-10.7-13-7.7-23.9
		c36.2-133.9,197.4-193.7,311.1-115c6.8,4.7,9,7,1.8,14.2c-42.7,43.1-68.7,95-79.5,154.6c-1.3,7.4,0.3,13.2,5.7,18.3
		C363.5,944.4,368.1,949.1,374.1,955z"/>
	<path class="st4" d="M536,542c1-58.4,48.4-104.5,106.6-103.6c57.3,0.8,103.8,48.9,102.9,106.2C744.6,603.9,697,649.1,636.7,648
		C581,646.9,535.1,598.5,536,542z"/>
	<path class="st4" d="M236.6,581.2c0.1-45,36-80.2,81.5-79.9c43.3,0.3,79.1,36.8,79,80.5c-0.1,44.2-36.2,79.9-80.7,79.8
		C271.8,661.6,236.5,625.9,236.6,581.2z"/>
	<path class="st4" d="M1044.9,581.9c-0.2,44.6-35.8,79.9-80.4,79.8c-44.3-0.1-80.1-36.2-80-80.5c0.2-44.2,36.3-79.9,80.7-79.8
		C1009.7,501.5,1045.1,537.2,1044.9,581.9z"/>
	<path class="st5" d="M746.8,228.9c0,5.3-2.8,8.7-6,12c-33.3,35.2-66.6,70.4-100,105.5c-8.8,9.3-15.4,9.8-25.7,2.6
		c-21.2-14.9-42.3-29.9-63.3-44.9c-10.1-7.2-12.5-15.7-6.9-23.8c5.7-8.4,15-9,25.6-1.6c16,11.2,32.1,22.2,47.7,34
		c5.5,4.2,8.3,3.5,12.8-1.3c28.7-30.7,57.7-61.2,86.7-91.6c8.9-9.3,19.6-9.5,26-0.9C746,221.8,747.3,225.2,746.8,228.9z"/>
</g>
</svg>
