<?xml version="1.0" encoding="utf-8"?>
<!-- Generator: Adobe Illustrator 23.1.0, SVG Export Plug-In . SVG Version: 6.00 Build 0)  -->
<!DOCTYPE svg PUBLIC "-//W3C//DTD SVG 1.1//EN" "http://www.w3.org/Graphics/SVG/1.1/DTD/svg11.dtd" [
	<!ENTITY ns_extend "http://ns.adobe.com/Extensibility/1.0/">
	<!ENTITY ns_ai "http://ns.adobe.com/AdobeIllustrator/10.0/">
	<!ENTITY ns_graphs "http://ns.adobe.com/Graphs/1.0/">
	<!ENTITY ns_vars "http://ns.adobe.com/Variables/1.0/">
	<!ENTITY ns_imrep "http://ns.adobe.com/ImageReplacement/1.0/">
	<!ENTITY ns_sfw "http://ns.adobe.com/SaveForWeb/1.0/">
	<!ENTITY ns_custom "http://ns.adobe.com/GenericCustomNamespace/1.0/">
	<!ENTITY ns_adobe_xpath "http://ns.adobe.com/XPath/1.0/">
]>
<svg version="1.1" id="Layer_1" xmlns:x="&ns_extend;" xmlns:i="&ns_ai;" xmlns:graph="&ns_graphs;"
	 xmlns="http://www.w3.org/2000/svg" xmlns:xlink="http://www.w3.org/1999/xlink" x="0px" y="0px" viewBox="0 0 1280 1024"
	 style="enable-background:new 0 0 1280 1024;" xml:space="preserve">
<style type="text/css">
	.st0{fill:#4DB848;}
	.st1{fill:#0D5A41;}
</style>
<metadata>
	<sfw  xmlns="&ns_sfw;">
		<slices></slices>
		<sliceSourceBounds  bottomLeftOrigin="true" height="1024" width="1051.9" x="119.3" y="-1024"></sliceSourceBounds>
	</sfw>
</metadata>
<g>
	<path class="st0" d="M119.3,459.5c0.9-4.6,4.8-6.6,7.7-9.4C283.7,301.9,440.5,153.7,597.3,5.3c5.4-5.1,8.8-8.2,16.2-1.4
		c74.3,68.6,148.9,136.9,223.7,205c6.9,6.3,7.5,10.7,3.1,18.8c-28.9,52.7-49.2,108.2-54,168.7c-6,75.7,16.6,142.5,62.1,202.4
		c32.7,43,75,76.3,114.8,112.1c11,9.9,15.6,19.7,15.5,34.5c-0.7,88-0.5,176.1-0.1,264.1c0.1,11.4-3,14.6-14.4,14.5
		c-238.6-0.3-477.3-0.2-715.9-0.2c-14.5,0-14.5-0.1-14.5-15.2c0-171.2,0-342.4,0-513.6c0-4.5,0.1-9-0.1-13.5
		c-0.8-13.9-6.4-19.6-20.5-19.7c-27.3-0.3-54.7-0.1-82-0.2C127.1,461.5,122.8,462.9,119.3,459.5z"/>
	<path class="st1" d="M1015.6,676c-3.3-5.3-2.1-9.9-2.1-14.1c-0.1-86.2,0-172.4-0.1-258.5c0-5.2-0.2-10.5-1.2-15.6
		c-1.6-8.1-7.7-12.1-15.4-12.3c-8.2-0.2-14.6,3.8-16.5,12.4c-1.1,5.1-1.2,10.4-1.2,15.6c-0.1,86.2-0.1,172.4-0.1,258.5
		c0,4.3,0,8.6,0,15.1c-60-51.2-118-100.4-144.4-175.6c-17.2-49.2-18-99-5.8-149.3c17.9-74,56.1-137.4,102.1-196.8
		c17.9-23.1,37.3-45,57.7-66c4.8-4.9,8.1-6.4,13.6-0.7c65.6,67.5,121.7,141.4,151.9,231.9c35.8,107.8,15.5,203.6-63.4,286.1
		C1067.3,631.2,1040.8,652.5,1015.6,676z"/>
	<path class="st1" d="M870.6,731.3c-4.8,3.4-9,2.2-13,2.2c-45.7,0.1-91.3,0-137,0.1c-4.5,0-9,0-13.4,0.7c-8.8,1.3-13,7.5-13.4,15.6
		c-0.4,7.7,3.4,13.6,11.1,16.4c4.7,1.7,9.6,1.5,14.4,1.5c46,0,92.1,0,138.1,0.1c3.9,0,8.1-1.1,12,1.1
		c-54.6,76.4-126.7,103.3-211.6,69.7c-47-18.6-87.1-47.6-123.4-82.2c-3.3-3.1-7.1-5.4-1.7-10.5c43.9-41.9,92.2-76.7,151.8-92
		c66.2-17,120.6,5,165.6,54.1C856.9,715.5,863.6,723.4,870.6,731.3z"/>
</g>
</svg>
