<?xml version="1.0" encoding="utf-8"?>
<!-- Generator: Adobe Illustrator 23.1.0, SVG Export Plug-In . SVG Version: 6.00 Build 0)  -->
<!DOCTYPE svg PUBLIC "-//W3C//DTD SVG 1.1//EN" "http://www.w3.org/Graphics/SVG/1.1/DTD/svg11.dtd" [
	<!ENTITY ns_extend "http://ns.adobe.com/Extensibility/1.0/">
	<!ENTITY ns_ai "http://ns.adobe.com/AdobeIllustrator/10.0/">
	<!ENTITY ns_graphs "http://ns.adobe.com/Graphs/1.0/">
	<!ENTITY ns_vars "http://ns.adobe.com/Variables/1.0/">
	<!ENTITY ns_imrep "http://ns.adobe.com/ImageReplacement/1.0/">
	<!ENTITY ns_sfw "http://ns.adobe.com/SaveForWeb/1.0/">
	<!ENTITY ns_custom "http://ns.adobe.com/GenericCustomNamespace/1.0/">
	<!ENTITY ns_adobe_xpath "http://ns.adobe.com/XPath/1.0/">
]>
<svg version="1.1" id="Layer_1" xmlns:x="&ns_extend;" xmlns:i="&ns_ai;" xmlns:graph="&ns_graphs;"
	 xmlns="http://www.w3.org/2000/svg" xmlns:xlink="http://www.w3.org/1999/xlink" x="0px" y="0px" viewBox="0 0 1280 1024"
	 style="enable-background:new 0 0 1280 1024;" xml:space="preserve">
<style type="text/css">
	.st0{fill:#4DB848;}
	.st1{fill:#0D5A41;}
	.st2{fill:#FFFF00;}
	.st3{fill:#FFC200;}
	.st4{fill:#FFFFFF;}
	.st5{fill:#00F0FC;}
	.st6{fill:#FDFFFE;}
	.st7{fill:#00E3FC;}
	.st8{fill:#0085C3;}
	.st9{fill:#00E1FA;}
	.st10{fill:#0070A0;}
	.st11{fill:#00E2FB;}
</style>
<metadata>
	<sfw  xmlns="&ns_sfw;">
		<slices></slices>
		<sliceSourceBounds  bottomLeftOrigin="true" height="1024" width="1034.7" x="122.9" y="-1024"></sliceSourceBounds>
	</sfw>
</metadata>
<g>
	<path class="st0" d="M640.4,169.3c40-18,78.3-35.2,116.6-52.4c20.2-9.1,40.5-18.3,60.7-27.4c18.8-8.4,26.8-3.1,26.8,17.7
		c0,161.8,0,323.7,0,485.5c0,5.1-0.4,10.3,0.1,15.4c0.5,4.8-2.7,10.6,2.2,14.2c2.6,1.9,16-9.1,17.2-13.9
		c6.3-23.4,12.7-46.8,18.6-70.3c2.2-8.9,6.7-14.9,14.8-19.5c48.7-27.7,97.2-55.9,145.7-84c6.7-3.9,13.3-7.8,20.8-2.3
		c7.8,5.8,6.2,13.5,4,21.4c-4.1,14.8-7.7,29.8-12,44.5c-1.8,6-1.2,8.2,5.8,9.1c26,3.2,40,27.5,29.4,51.4c-3.1,7.1-0.6,7.7,4.9,9.1
		c15.9,4,31.6,8.6,47.5,12.7c7.2,1.9,12.8,5.4,13.7,13.3c0.9,8-4.1,12.4-10.4,16.1c-50.1,28.8-100.1,57.7-150.1,86.6
		c-6,3.5-11.7,4.3-18.5,2.4c-22-6.3-44.3-11.5-66.2-18c-8.9-2.6-15.9-2-23.9,2.9c-19.8,12.2-20.1,11.8-13.9,34.1
		c38.2,138-50.1,277.7-190.9,302.4c-137.3,24-268.2-77.1-279.7-215.9c-1-11.6-2.1-23.3-0.5-34.8c1-7.7-1.6-9.3-8.7-9.2
		c-47.9,0.2-95.8,0.1-143.7,0.1c-35.9,0-71.9,0-107.8,0c-15.9,0-20.2-4.2-20.2-19.9c0-181,0-362,0-543c0-15,4.5-19.4,19.6-19.7
		c15.4-0.3,15.4-0.3,15.4-16.1c0-32.2,0-32.2,31.7-32.2c48.6,0,97.2,0,145.8,0c16.1,0,20.1,4,20.3,19.8c0.1,7.9,0,15.7,0.2,23.6
		c0,2.1,0.5,4.3,3.3,4.2c2.7-0.1,3.1-2.3,3.2-4.3c0.1-6.8,0.1-13.7,0.1-20.5c0-28.4-0.1-56.8,0-85.2c0.1-14.5,4.7-19.1,18.8-19.3
		c22.9-0.3,22.9-0.3,22.9-22.8c0-2.7,0-5.5,0-8.2c0.2-11.9,4.9-16.8,16.8-16.9C447-0.1,473,0,499,0c26.7,0,53.4,0,80.1,0
		c15.2,0,19.7,4.5,19.8,19.4c0.1,7.2,0.3,14.4-0.1,21.6c-0.2,5.3,1.6,7.5,7,7.1c5.4-0.4,10.9-0.1,16.4-0.1c13,0.2,18,5.1,18.1,18
		c0.1,30.8,0,61.6,0,92.4C640.4,161.5,640.4,164.5,640.4,169.3z"/>
	<path class="st1" d="M813.7,613.9c-32.4-31.7-69.8-53.2-113.3-63.9c-16.7-4.1-33.6-6.5-50.7-6.8c-6.7-0.1-9.4-1.5-9.4-9
		c0.2-108.4,0.2-216.9,0-325.3c0-6.1,2.1-8.9,7.5-11.3c52.7-23.5,105.4-47.2,157.8-71.2c8.6-3.9,10.3-1.9,10.2,6.8
		c-0.2,157.4-0.1,314.7-0.2,472.1C815.7,607.7,816.5,610.5,813.7,613.9z"/>
	<path class="st2" d="M643.2,572.9c60,0.2,110.4,22.5,152.3,64.8c8.7,8.7,8.5,9.1-1.7,15.2c-19.9,11.8-19.9,11.8-37.5-3.6
		c-70.1-61.3-183.8-52.9-244.5,17.7c-32.2,37.4-47.7,80.5-43.9,129.3c6.2,79.1,61.5,142.5,139,158.8
		c94.4,19.8,184.5-38.5,207.1-132.5c6.7-27.7,6.4-55.5-1.3-82.9c-2.1-7.5-0.8-11.7,6.3-14.4c0.3-0.1,0.6-0.3,0.9-0.5
		c23-13.4,23-13.4,29,12.1c27.3,117.3-54,237-173.1,255c-113.1,17.1-220.5-58.3-240-170.4C413.8,695.5,501,592,609.7,575.2
		C621,573.5,632.2,574,643.2,572.9z"/>
	<path class="st3" d="M498.6,785.1c-2-66.6,45.4-133.6,122.9-145.1c43.8-6.5,84,4.7,118,34.8c5.3,4.7,4.8,7.4-1.2,10.2
		c-0.3,0.1-0.6,0.3-0.9,0.5c-13.6,9.7-24.8,13.3-42.3,2.5c-36-22.3-74.7-19.7-110.4,2.9c-36.1,22.9-53.8,57.1-51,99.7
		c3.7,57.8,49.3,96.2,97,101.4c62.4,6.9,109.9-38,119.3-85.1c2.3-11.6,5.1-23.4,1.8-35.4c-0.9-3.4-0.6-7,3-9.1
		c7.9-4.7,15.8-9.5,23.9-13.8c6.3-3.3,5.9,3.2,6.5,5.8c3.3,14.1,4,28.5,2.5,42.8c-6.2,60.2-48.2,109.7-106.2,126
		c-81.1,22.7-165.2-29.9-180.9-112.8C498.8,801.2,499.1,792.1,498.6,785.1z"/>
	<path class="st4" d="M685.1,716.5c-12.9,7.5-25.6,14.7-38.2,22.1c-20.1,11.8-26.9,32.9-16.5,51.4c10.6,18.8,32.7,23.9,53.3,12.3
		c12.7-7.2,25.2-14.5,38.3-22c3.7,34.7-21.2,69.5-56.1,79.9c-36.3,10.8-75.5-5.6-93.4-39.1c-18.1-33.9-9.7-75.7,20.2-100
		C619.5,699.2,661.8,696.9,685.1,716.5z"/>
	<path class="st5" d="M223.5,674c0-16.1,0.2-32.1-0.1-48.2c-0.1-7.9,3.2-11.2,11-11.1c15,0.2,30.1,0.2,45.1,0
		c7.8-0.1,11.2,3.4,11.1,11.1c-0.1,32.8-0.1,65.6,0.1,98.5c0,5.7-1.7,7.8-7.6,7.7c-17.4-0.3-34.9-0.3-52.3,0c-6,0.1-7.5-2.1-7.4-7.7
		C223.7,707.5,223.5,690.7,223.5,674z"/>
	<path class="st4" d="M663.9,780c-4.2-0.3-7.1-1.4-8.5-4.6c-1.4-3-1.2-6.2,1.4-8.5c2.3-2,4.9-3.6,7.6-5.2
		c127.9-73.8,255.7-147.7,383.6-221.5c2.1-1.2,4.1-2.6,6.3-3.5c4.2-1.6,8.4-1.6,10.7,3c2.1,4.1,1,8-2.9,10.8c-2,1.4-4.1,2.5-6.1,3.7
		C928.2,628,800.6,701.6,673.1,775.2C669.8,777.1,666.5,778.7,663.9,780z"/>
	<path class="st6" d="M898.3,592c4.3-15.9,8.4-30.9,12.5-45.9c0.7-2.5,3.1-3.5,5.1-4.7c37.6-21.6,75.1-43.3,112.7-64.9
		c0.8-0.5,1.8-0.7,4-1.5c-4.2,15.5-8.3,30.2-12.1,45c-0.8,3-2.7,4.5-5.2,5.9c-37.6,21.6-75.1,43.3-112.7,64.9
		C901.9,591.3,900.8,591.3,898.3,592z"/>
	<path class="st6" d="M934.6,657.5c41.3-23.8,80-46.1,118.6-68.4c2.2-1.3,4.5-1.7,6.9-1.1c14.4,3.9,28.8,7.8,43.4,11.8
		c-1.2,4.1-4.5,4.7-6.9,6.1c-34.8,20.2-69.7,40.2-104.4,60.5c-5.4,3.1-10.1,4.2-16.3,2.2C963.2,664.6,950.3,661.6,934.6,657.5z"/>
	<path class="st7" d="M432.9,47.6c0-6,0-12,0-18c1.7-1.7,3.8-1.2,5.8-1.2c41.3,0,82.5,0,123.8,0c2,0,4.1-0.4,5.8,1.2
		c0,6.1,0,12.1,0,18.2c-1.7,1.5-3.9,1.1-5.9,1.1c-41.2,0-82.5,0-123.7,0C436.7,48.8,434.6,49.2,432.9,47.6z"/>
	<path class="st8" d="M501.8,115.2c23.3,0,46.5-0.1,69.8,0c13.5,0.1,18.1,4.5,18.4,17.6c0.2,11.6,0.3,23.3-0.1,34.9
		c-0.4,10.7-5.5,15.6-16.2,15.7c-48.2,0.1-96.5,0.1-144.7,0c-10.6,0-16-5.2-16.3-15.6c-0.4-12.3-0.3-24.6,0-36.9
		c0.3-10.3,5.6-15.5,16.3-15.6C453.2,115,477.5,115.2,501.8,115.2z"/>
	<path class="st8" d="M412.6,454.3c0-8.9-0.3-17.8,0.1-26.6c0.4-9.9,5.5-15.2,15.4-15.4c18.1-0.4,36.2-0.3,54.3,0
		c9.3,0.1,15,5.3,15.2,14.5c0.4,18.4,0.5,36.9,0,55.3c-0.2,9.8-5.8,14.9-15.8,15.1c-17.8,0.3-35.5,0.3-53.3,0
		c-10.3-0.2-15.5-5.7-15.8-16.2C412.4,472.1,412.6,463.2,412.6,454.3z"/>
	<path class="st8" d="M456,404.9c-8.9,0-17.8,0.2-26.6,0c-11.1-0.3-16.5-5.4-16.7-16.3c-0.3-17.4-0.3-34.8,0-52.3
		c0.2-11,5.4-16.2,16.6-16.4c17.4-0.3,34.8-0.3,52.3,0c11.2,0.2,16,5.3,16.2,16.8c0.3,17.1,0.3,34.2,0,51.2
		c-0.2,11.7-5.5,16.7-17.1,17C472.4,405,464.2,404.9,456,404.9z"/>
	<path class="st8" d="M547.2,497.2c-8.9,0-17.8,0.3-26.6-0.1c-9.9-0.4-15.3-5.7-15.5-15.4c-0.3-18.1-0.3-36.2,0-54.3
		c0.2-9.7,5.6-15,15.6-15.2c17.8-0.4,35.5-0.4,53.3,0c10.8,0.2,15.8,5.1,16,15.9c0.4,17.8,0.4,35.5,0,53.3
		c-0.2,10.4-5.6,15.5-16.1,15.8C564.9,497.5,556,497.2,547.2,497.2z"/>
	<path class="st8" d="M504.9,361.5c0-8.2-0.1-16.4,0-24.6c0.2-11.3,5-16.8,15.9-17.1c17.7-0.4,35.5-0.4,53.3,0
		c10.7,0.2,15.6,5.3,15.8,16.1c0.3,17.8,0.4,35.5,0,53.3c-0.2,10.4-5.7,15.5-16.3,15.6c-17.4,0.2-34.8,0.3-52.3,0
		c-10.9-0.2-16.1-5.6-16.4-16.6C504.8,379.3,504.9,370.4,504.9,361.5z"/>
	<path class="st8" d="M454.5,312.6c-8.2,0-16.4,0.2-24.6,0c-11.7-0.3-17.1-5.4-17.2-16.9c-0.2-17.1-0.2-34.2,0-51.2
		c0.2-11.6,5.3-16.6,17.1-16.8c16.7-0.2,33.5-0.2,50.2,0c12.8,0.1,17.6,4.7,17.8,17.2c0.3,16.7,0.3,33.5,0,50.2
		c-0.2,12.3-5.4,17.3-17.6,17.5C471.5,312.7,463,312.6,454.5,312.6z"/>
	<path class="st8" d="M547.9,227.6c8.9,0,17.8-0.3,26.6,0.1c10.2,0.4,15.2,5.1,15.4,15.3c0.4,18.1,0.4,36.2,0,54.3
		c-0.2,9.9-5.7,15.1-15.6,15.2c-17.8,0.3-35.5,0.3-53.3,0c-10.4-0.2-15.8-5.6-16-16c-0.3-17.8-0.3-35.5,0-53.3
		c0.2-10.4,5.5-15.3,16.2-15.6C530.1,227.4,539,227.6,547.9,227.6z"/>
	<path class="st9" d="M712.7,359.8c0,38.3,0.1,76.7-0.1,115c0,11.8-7.1,18.5-16.9,16.4c-9-1.9-11.7-8.6-11.7-16.9
		c0-16.1,0-32.2,0-48.2c0-58.9,0-117.7,0-176.6c0-3.7,0-7.6,0.9-11.2c1.8-7.3,6.9-10.9,14.3-10.5c7.4,0.4,12.1,4.4,13.2,11.9
		c0.5,3.4,0.4,6.8,0.4,10.2C712.7,286.6,712.7,323.2,712.7,359.8z"/>
	<path class="st9" d="M772,358.8c0,36.5,0,73.1,0,109.6c0,3.1,0.1,6.2-0.1,9.2c-0.6,8.3-5,13.4-13.5,13.8
		c-8.6,0.4-13.4-4.6-14.7-12.6c-0.8-4.7-0.3-9.5-0.3-14.3c0-71,0-142.1,0-213.1c0-3.4-0.2-6.9,0.2-10.2c1.1-8.6,7.3-14,15.3-13.2
		c8.4,0.8,12.9,5.7,13.2,14.1c0.2,7.2,0.1,14.3,0.1,21.5C772,295.3,772,327,772,358.8z"/>
	<path class="st1" d="M330.3,397.3c0,38,0,75.9,0,113.9c0,12.6-4.2,18.1-16.7,18.3c-37.6,0.5-75.3,0.5-112.9,0
		c-12.1-0.1-18.1-6.9-18.2-19c-0.2-75.9-0.2-151.9,0-227.8c0-13.3,6.4-19.4,19.8-19.4c36.6-0.2,73.2-0.2,109.8,0
		c12.9,0.1,18.2,5.9,18.2,19.1C330.3,320.7,330.3,359,330.3,397.3z"/>
	<path class="st7" d="M559.9,154.6c-35.8-0.1-71.6-0.3-107.4-0.1c-7.5,0-11.1-2.3-9.3-10.1c2.4-1.8,5.3-1.1,7.9-1.1
		c33.6,0,67.3-0.1,100.9,0C562.2,143.3,562.3,143.5,559.9,154.6z"/>
	<path class="st10" d="M559.9,154.6c1.9-8.2-1.5-10.5-9.6-10.5c-35.7,0.4-71.4,0.2-107.1,0.2c1.9-2.8,4.9-2.1,7.5-2.1
		c33.5,0,67-0.1,100.5,0C561.8,142.3,563.1,144.4,559.9,154.6z"/>
	<path class="st7" d="M455.5,442.6c11.2-3,12.2,3.3,12.5,12.2c0.3,9.9-3.2,12.8-12.9,12.8c-10,0-12.7-3.9-12.7-13.3
		C442.4,444.4,445.5,440,455.5,442.6z"/>
	<path class="st11" d="M467.3,362.7c2.5,10.6-2.2,13.7-11.9,13.2c-12.2-0.6-12.1-0.9-13-13.7c-0.7-11.2,4.5-12.5,13.9-12.7
		C467.2,349.2,469.4,353.9,467.3,362.7z"/>
	<path class="st9" d="M560.1,453.5c0,14.3-0.3,14.6-13.2,14.5c-12.2-0.1-12.2-0.8-12.9-13.8c-0.6-10.4,3.9-12.3,13.2-12.4
		C557.3,441.6,562.2,444.3,560.1,453.5z"/>
	<path class="st9" d="M548.3,349.7c8.4-1.8,12.5,1.5,12.1,12.4c-0.3,9.3-1.4,14.6-12.6,13.9c-12.9-0.9-13.6-0.8-13.7-12.9
		C534,350.1,534.3,349.8,548.3,349.7z"/>
	<path class="st11" d="M467.4,270.6c2.1,9.7-1.5,13.7-11.8,13.1c-12.5-0.7-13.1-0.7-13-13.6c0-12.6,0.3-12.2,13.4-13
		C466.8,256.5,469.1,261.4,467.4,270.6z"/>
	<path class="st9" d="M559.7,269.9c2.2,10.2-1.4,14.5-12.2,13.8c-12.8-0.8-13.4-0.7-13.4-13.2c-0.1-12.9,0.2-12.7,12.9-13.4
		C556.8,256.7,562.4,258.9,559.7,269.9z"/>
	<path class="st5" d="M301.5,368c0,14.3,0,14.5-17,14.3c-15.5-0.1-13.3,2.3-13.3-17c0-15.7-2.1-13.2,17.1-13.3
		C301.5,351.8,301.5,351.9,301.5,368z"/>
	<path class="st7" d="M301.5,426.1c-0.4,16.6,3,14.9-15.3,14.9c-17.8,0-15.1,1.6-15.1-16.3c0-16.1-2.5-13.5,17.5-13.7
		C301.5,410.9,301.5,411,301.5,426.1z"/>
	<path class="st7" d="M301.5,308.8c0,14.4,0,14.5-15.9,14.3c-16.8-0.1-14.4,2.1-14.5-15.9c0-15.7-2-14.1,16.6-14
		C304.3,293.3,301.2,291.8,301.5,308.8z"/>
	<path class="st7" d="M242.4,367.8c-0.3,17.1,2,14.4-15.8,14.4c-15.7,0-14,2.8-14-16.3c0-16.8-1.9-13.9,17.4-14
		C244,351.9,242.2,349.8,242.4,367.8z"/>
	<path class="st7" d="M228.4,441.1c-17.8-0.2-15.8,1.8-15.7-14.8c0-17.9-2.1-15,15.1-15.2c14.7-0.2,14.8,0,14.7,15.6
		C242.2,442.4,244.6,440.9,228.4,441.1z"/>
	<path class="st5" d="M286.1,499.7c-17.3-0.3-14.9,2.2-14.9-15.4c-0.1-16-2.1-14.6,16.1-14.5c17.2,0.1,14.1-1.9,14.2,17.1
		C301.5,501.6,304,499.5,286.1,499.7z"/>
	<path class="st7" d="M242.4,307.9c-0.3,17.8,2.2,15.1-15,15.2c-16.8,0-14.7,2.6-14.7-15.4c0-16.1-2.4-14.3,16-14.3
		C244.5,293.3,242.1,292,242.4,307.9z"/>
	<path class="st7" d="M242.4,485.3c-0.3,16.9,2.2,14.3-15.9,14.3c-16,0-13.9,2.6-13.9-16.3c0-15.1-2-13.5,15.9-13.5
		C244.7,469.9,242.1,468.2,242.4,485.3z"/>
</g>
</svg>
