<?xml version="1.0" encoding="utf-8"?>
<!-- Generator: Adobe Illustrator 23.1.0, SVG Export Plug-In . SVG Version: 6.00 Build 0)  -->
<!DOCTYPE svg PUBLIC "-//W3C//DTD SVG 1.1//EN" "http://www.w3.org/Graphics/SVG/1.1/DTD/svg11.dtd" [
	<!ENTITY ns_extend "http://ns.adobe.com/Extensibility/1.0/">
	<!ENTITY ns_ai "http://ns.adobe.com/AdobeIllustrator/10.0/">
	<!ENTITY ns_graphs "http://ns.adobe.com/Graphs/1.0/">
	<!ENTITY ns_vars "http://ns.adobe.com/Variables/1.0/">
	<!ENTITY ns_imrep "http://ns.adobe.com/ImageReplacement/1.0/">
	<!ENTITY ns_sfw "http://ns.adobe.com/SaveForWeb/1.0/">
	<!ENTITY ns_custom "http://ns.adobe.com/GenericCustomNamespace/1.0/">
	<!ENTITY ns_adobe_xpath "http://ns.adobe.com/XPath/1.0/">
]>
<svg version="1.1" id="Layer_1" xmlns:x="&ns_extend;" xmlns:i="&ns_ai;" xmlns:graph="&ns_graphs;"
	 xmlns="http://www.w3.org/2000/svg" xmlns:xlink="http://www.w3.org/1999/xlink" x="0px" y="0px" viewBox="0 0 1280 1024"
	 style="enable-background:new 0 0 1280 1024;" xml:space="preserve">
<style type="text/css">
	.st0{fill:#F5DBCC;}
	.st1{fill:#89C8FD;}
	.st2{fill:#4DB848;}
	.st3{fill:#F0CBBB;}
	.st4{fill:#D1D0D6;}
	.st5{fill:#F0CBBC;}
	.st6{fill:#63B5FA;}
	.st7{fill:#EDCBBE;}
	.st8{fill:#020204;}
</style>
<metadata>
	<sfw  xmlns="&ns_sfw;">
		<slices></slices>
		<sliceSourceBounds  bottomLeftOrigin="true" height="1024" width="996.5" x="140.1" y="-1024"></sliceSourceBounds>
	</sfw>
</metadata>
<g>
	<path class="st0" d="M507.6,765.8c-8.9,16.4-4.9,26,13.3,31.1c41.8,11.6,83.3,24,126.1,31.7c33.5,6.1,64.9,1.7,94.6-15.8
		c56.7-33.4,113.7-66.3,170.7-99.3c18.5-10.7,37.8-19.6,59.5-22.1c19.4-2.2,34,5.5,39.2,21.2c5.8,17.4-0.3,33.9-16.2,43.7
		C895.5,817.5,796,878.3,697,939.9c-29.5,18.4-59.5,22-92.8,12.7c-69.7-19.5-139.8-37.6-209.6-56.6c-10.1-2.8-18.4-1.7-27.1,3.9
		c-7.9,5.2-18,14.2-24.5,12.3c-6.7-1.9-10.4-14.9-15-23.2c-9-16-17.7-32.1-26.6-48.2c4.1-6.6,11.1-9.7,17.4-13.1
		C389.6,789,458.3,746.5,529,707.6c5.1-2.8,10.1-6.2,16.5-4.1c30.2,8.7,59.9,19.5,90.9,25.6c5,1,10.2,1.8,15,3.4
		c21.5,6.9,28.6,30.1,15.1,48.5c-7.3,2.4-13.8-1.1-20.3-2.9c-31.9-8.7-63.8-17.3-95.6-25.9c-2.5-0.7-5-1.3-7.5-1.9
		C520.4,744.7,518.4,745.5,507.6,765.8z"/>
	<path class="st1" d="M843.9,573.2c-3.3,0.2-6.6,0.6-9.9,0.6c-117.2,0-234.3,0-351.5,0.2c-8,0-10.7-0.7-8.5-10
		c29.8-122.4,176-187.1,286.8-126.6c1.3,0.7,2.3,1.7,3.5,2.6c41,29.8,66.2,70.1,79.4,118.4C845.1,563.1,847.5,568.2,843.9,573.2z"/>
	<path class="st2" d="M1136.6,518.5c-19.9,25.3-38.3,48.6-57,72.4c-18.7-23.7-36.9-46.8-54.7-69.5c1-3.2,3.1-2.8,4.8-2.9
		c15.2-0.9,20.2-5.6,21.8-20.6C1075,280.8,927,86.1,710.5,49.4c-2.5-0.4-5.1-0.7-7.7-0.8c-6.8-0.2-9.7-2.9-9.2-10.2
		c0.7-9.9,0.7-19.9,0-29.8c-0.6-8.1,2.8-9.1,9.7-8.2c56.3,7.7,109.9,24,159.6,51.8c124.2,69.7,200.4,175,229.8,313.9
		c8.9,42,10.4,84.7,6.2,127.6c-1.7,16.9,5.7,24.7,23.7,24.9C1126.3,518.5,1129.9,518.5,1136.6,518.5z"/>
	<path class="st0" d="M715.6,365.3c-53.8,35.8-130.9-0.5-139-66.1c-4.6-37,8.6-67.7,39.5-88.9c30.9-21.1,63.8-21.8,97-4.7
		c0.9,0.5,1.6,1.4,2.5,2.1C761.6,238.5,765.2,330.1,715.6,365.3z"/>
	<path class="st3" d="M545.5,703.4c-21.3,9-40.7,21.7-60.7,33.1c-41.7,23.8-83.3,47.9-124.9,71.9c-16.2,9.3-32.4,18.7-48.5,28.2
		c-3.2,1.9-6.2,3.9-10,4.3c-12.7-21.9-25.2-44-38.1-65.8c-2.6-4.4-1.4-6.3,2.6-8.5c46-26.2,91.8-53,138-78.8
		c27.1-15.1,55.5-17.8,84.9-5.4C507.4,690.2,526.6,696.5,545.5,703.4z"/>
	<path class="st4" d="M193.3,734.3c7.2-0.6,8.7,4.7,11,8.7c34.7,61.2,69.4,122.4,104,183.7c10.3,18.3,20.3,36.8,31.1,54.8
		c5.4,8.9,3.3,13.8-5.4,18.3c-13,6.8-25.8,14.1-38.5,21.7c-7.1,4.2-11.8,3.6-16.1-4.1c-45.5-80.8-91.2-161.5-136.9-242.2
		c-3.2-5.6-3.9-10.4,2.4-14.1c15-8.6,30.1-17.1,45.1-25.6C191.2,734.8,192.7,734.5,193.3,734.3z"/>
	<path class="st2" d="M216.6,404.4c-24.5,0-24.7,0-20.7-24.2c6-35.9,15.9-70.8,29.9-104.5c3-7.2,5.5-7.4,11.4-3.6
		c9,5.7,18.3,11,27.7,15.9c5,2.6,5.7,5.3,3.5,10.5c-13.2,31.6-22,64.6-26.5,98.5c-0.7,5.6-3.4,7.6-8.7,7.4
		C227.6,404.2,222.1,404.4,216.6,404.4z"/>
	<path class="st2" d="M597.2,23.2c0,23.7,0,23.8-22.7,27.4c-28,4.5-55.1,12.4-81.4,23.1c-6.4,2.6-9.7,2.2-12.9-4.3
		c-4.5-9.2-9.8-18.1-15.4-26.7c-3.5-5.4-2.8-7.4,3.3-9.9c34.7-14.6,70.6-24.9,107.8-30.5c21.4-3.2,21.4-3,21.3,18.7
		C597.2,21.7,597.2,22.5,597.2,23.2z"/>
	<path class="st2" d="M216.7,500.5c23.1,0,23.2,0,26.9,22.1c4.5,27.3,11.5,53.9,22.4,79.3c4.1,9.6,2.6,14.7-7,18.3
		c-5.1,1.9-9.6,5.4-14.4,8.2c-15.7,9.1-15.7,9.1-22.6-8.3c-13.7-34.7-22.5-70.6-28.1-107.4c-1.4-9.4-0.1-14.1,10.6-12.3
		C208.5,501,212.6,500.5,216.7,500.5z"/>
	<path class="st2" d="M400,124.3c0,3.2-2.7,4.2-4.6,5.7c-27.1,21.2-51.3,45.4-72,72.9c-2.9,3.9-5.3,5.1-9.8,2.3
		c-9.7-6-19.5-11.9-29.6-17.1c-5.7-3-5.2-5.5-1.8-10c25.6-33.6,55.1-63.3,88.8-88.8c3.4-2.6,6.3-5.4,9.5,0.6
		c5.6,10.4,11.7,20.4,17.6,30.7C398.7,121.7,399.3,123,400,124.3z"/>
	<path class="st5" d="M507.6,765.8c-3.1-16.2,9-26.2,27.4-21.5c26.7,6.8,53.3,14.4,79.9,21.3c17.4,4.5,34.9,8.5,51.6,15.4
		c-8.3,10.8-19.7,11.7-31.7,9.4c-35.4-6.8-69.6-18.1-104.3-27.5C522,760.6,514.7,760.7,507.6,765.8z"/>
	<path class="st6" d="M843.9,573.2c-8.9-40.5-26.2-76.7-54.7-107.1c-8.2-8.8-18.4-15.6-24.9-26.1c36.1,17.9,61.9,46.2,81.1,80.9
		c7.3,13.2,12.2,27.4,16.6,41.8c2.6,8.5,1.6,12.6-8.2,11.1C850.5,573.4,847.2,573.4,843.9,573.2z"/>
	<path class="st7" d="M715.6,365.3c13.9-16.8,25-34.4,29.8-56.5c6.2-28.3-0.5-53.4-12.6-78.3c-4.3-8.9-12.1-14.7-17.2-22.7
		c30.3,17.8,45.1,44.8,44.9,79.3C760.2,321.1,745.6,347.9,715.6,365.3z"/>
	<path class="st8" d="M187.1,765.9c9,0.1,16.9,7.9,17,16.9c0.1,9.6-8.1,17.5-17.7,17.2c-9.3-0.3-16.6-8.1-16.4-17.3
		C170.3,773.6,178.2,765.8,187.1,765.9z"/>
</g>
</svg>
